<?xml version="1.0" encoding="UTF-8"?>
<svg width="16px" height="16px" viewBox="0 0 16 16" version="1.1" xmlns="http://www.w3.org/2000/svg" xmlns:xlink="http://www.w3.org/1999/xlink">
    <title>三方组件数</title>
    <g id="应急部管理员视角" stroke="none" stroke-width="1" fill="none" fill-rule="evenodd">
        <g id="管理员工作台-制品库" transform="translate(-761.000000, -224.000000)" fill-rule="nonzero">
            <g id="编组-5" transform="translate(761.000000, 163.000000)">
                <g id="集群" transform="translate(0.000000, 61.000000)">
                    <rect id="矩形" fill="#000000" opacity="0" x="0" y="0" width="16" height="16"></rect>
                    <path d="M8,8.48 L4.48,6.44 L4.48,2.36 L8,0.32 L11.52,2.36 L11.52,6.44 L8,8.48 Z M5.3,5.96 L8,7.52 L10.7,5.96 L10.7,2.84 L8,1.28 L5.3,2.84 L5.3,5.96 Z M12.14,15.72 L8.62,13.68 L8.62,9.6 L12.14,7.56 L15.66,9.6 L15.66,13.68 L12.14,15.72 Z M9.42,13.2 L12.12,14.76 L14.84,13.2 L14.84,10.08 L12.14,8.52 L9.44,10.08 L9.44,13.2 L9.42,13.2 Z M3.86,15.72 L0.34,13.68 L0.34,9.6 L3.86,7.56 L7.4,9.6 L7.4,13.68 L3.86,15.72 Z M1.16,13.2 L3.86,14.76 L6.58,13.2 L6.58,10.08 L3.88,8.52 L1.16,10.08 L1.16,13.2 Z" id="形状" fill="#8A8A8A"></path>
                </g>
            </g>
        </g>
    </g>
</svg>