<?xml version="1.0" encoding="UTF-8"?>
<svg width="16px" height="16px" viewBox="0 0 16 16" version="1.1" xmlns="http://www.w3.org/2000/svg" xmlns:xlink="http://www.w3.org/1999/xlink">
    <title>镜像</title>
    <g id="应急部管理员视角" stroke="none" stroke-width="1" fill="none" fill-rule="evenodd">
        <g id="管理员工作台-制品库" transform="translate(-540.000000, -224.000000)" fill-rule="nonzero">
            <g id="编组-5" transform="translate(540.000000, 163.000000)">
                <g id="镜像" transform="translate(0.000000, 61.000000)">
                    <rect id="矩形" fill="#000000" opacity="0" x="0" y="0" width="16" height="16"></rect>
                    <path d="M7.64109968,2 L8.35550424,2 L8.35550424,13.4308199 L7.64109968,13.4308199 L7.64109968,2 L7.64109968,2 Z M0.135533649,13.2384654 L0.135716234,13.2387028 L0,13.4301443 L0.271122076,13.4301443 L0.271596801,13.4308198 L0.663170914,13.4308198 L0.928285904,13.4308198 L6.57403012,13.4308198 L6.57403012,12.7160684 L6.57403012,5.45277584 L6.57403012,5.07796312 L6.57403012,4.14031055 L0.505233948,12.7160866 L0.135533649,13.2384654 Z M1.43118274,12.7150459 L1.63724939,12.4273633 L1.63779715,12.4281666 L5.91750533,6.38087914 L5.91750533,12.4451106 L5.9175601,12.4451106 L5.9175601,12.7160684 L5.9175601,12.7161597 L5.85504264,12.7161597 L5.85504264,12.7162692 L1.92577191,12.7162692 L1.58944835,12.7162692 L1.58944835,12.7160684 L1.58944835,12.7154476 L1.43118274,12.7150459 Z M15.7251167,13.4307286 L16,13.4296878 L15.8094167,13.1657049 L9.42365106,4.14812525 L9.42365106,5.08510224 L9.42365106,5.45936718 L9.42365106,13.4308016 L15.3336338,13.4308016 L15.583229,13.4308016 L15.5818779,13.4312398 L15.6993538,13.4308016 L15.7250619,13.4308016 L15.7251167,13.4307286 Z M14.1250966,12.7169448 L14.1253522,12.716251 L10.1415795,12.716251 L10.1415795,12.7156119 L10.0806688,12.7156119 L10.0806688,12.5034469 L10.0801758,12.5034469 L10.0801758,6.38679492 L14.3097824,12.3590396 L14.3103484,12.3590396 L14.4280251,12.5269457 L14.4280251,12.5278952 L14.5612217,12.7169448 L14.1250966,12.7169448 Z" id="形状" fill="#8A8A8A"></path>
                </g>
            </g>
        </g>
    </g>
</svg>